<svg width="274" height="43" viewBox="0 0 274 43" fill="none" xmlns="http://www.w3.org/2000/svg">
<path d="M23.893 25.658H8.117V43H0.692995V0.602H26.909V7.446H8.117V18.988H23.893V25.658ZM59.9332 43H33.6012V0.602H59.9332V7.446H41.0252V18.35H57.9612V24.904H41.0252V36.156H59.9332V43ZM75.4061 43H67.9821V0.602H84.1641C93.7921 0.602 99.4181 5.474 99.4181 13.826C99.4181 19.51 96.7501 23.57 91.7621 25.6L99.8241 43H91.7041L84.5121 27.166H75.4061V43ZM75.4061 7.214V20.612H84.1641C88.8621 20.612 91.6461 18.118 91.6461 13.826C91.6461 9.592 88.8621 7.214 84.1641 7.214H75.4061ZM114.03 43H106.838V0.602H114.03L127.718 34.358L141.406 0.602H148.714V43H141.522V29.95C141.522 21.424 141.522 18.93 141.928 15.914L131.14 43H124.296L113.566 15.972C113.972 18.524 114.03 22.526 114.03 27.804V43ZM165.289 43H158.097V0.602H165.289L178.977 34.358L192.665 0.602H199.973V43H192.781V29.95C192.781 21.424 192.781 18.93 193.187 15.914L182.399 43H175.555L164.825 15.972C165.231 18.524 165.289 22.526 165.289 27.804V43ZM213.011 43H205.297L220.609 0.602H228.207L243.519 43H235.689L232.267 33.198H216.433L213.011 43ZM223.451 13.246L218.637 26.934H230.121L225.249 13.246C224.901 12.144 224.495 10.868 224.379 9.998C224.205 10.81 223.857 12.086 223.451 13.246ZM256.26 0.602V36.156H274.008V43H248.836V0.602H256.26Z" fill="#EEF4F9"/>
</svg>
