<svg width="189" height="30" viewBox="0 0 189 30" fill="none" xmlns="http://www.w3.org/2000/svg">
<path d="M16.24 18.04H5.36V30H0.24V0.76H18.32V5.48H5.36V13.44H16.24V18.04ZM41.0953 30H22.9353V0.76H41.0953V5.48H28.0553V13H39.7353V17.52H28.0553V25.28H41.0953V30ZM51.7663 30H46.6463V0.76H57.8063C64.4463 0.76 68.3263 4.12 68.3263 9.88C68.3263 13.8 66.4863 16.6 63.0463 18L68.6063 30H63.0063L58.0463 19.08H51.7663V30ZM51.7663 5.32V14.56H57.8063C61.0463 14.56 62.9663 12.84 62.9663 9.88C62.9663 6.96 61.0463 5.32 57.8063 5.32H51.7663ZM78.4031 30H73.4431V0.76H78.4031L87.8431 24.04L97.2831 0.76H102.323V30H97.3631V21C97.3631 15.12 97.3631 13.4 97.6431 11.32L90.2031 30H85.4831L78.0831 11.36C78.3631 13.12 78.4031 15.88 78.4031 19.52V30ZM113.755 30H108.795V0.76H113.755L123.195 24.04L132.635 0.76H137.675V30H132.715V21C132.715 15.12 132.715 13.4 132.995 11.32L125.555 30H120.835L113.435 11.36C113.715 13.12 113.755 15.88 113.755 19.52V30ZM146.666 30H141.346L151.906 0.76H157.146L167.706 30H162.306L159.946 23.24H149.026L146.666 30ZM153.866 9.48L150.546 18.92H158.466L155.106 9.48C154.866 8.72 154.586 7.84 154.506 7.24C154.386 7.8 154.146 8.68 153.866 9.48ZM176.493 0.76V25.28H188.733V30H171.373V0.76H176.493Z" fill="#39434B"/>
</svg>
