<svg width="70" height="70" viewBox="0 0 70 70" fill="none" xmlns="http://www.w3.org/2000/svg">
<rect width="70" height="70" rx="35" fill="#566570"/>
<path d="M35 28V45M35 45H32M35 45H38M44 36L41.5 31L39 36M31 36L28.5 31L26 36" stroke="#E3EDF5" stroke-width="1.5" stroke-linecap="round" stroke-linejoin="round"/>
<path d="M27 31H28.048C29.312 31 30.538 30.471 31.524 29.5C33.556 27.5 36.444 27.5 38.476 29.5C39.462 30.471 40.688 31 41.952 31H43M41.5 40C42.855 40 44.034 39.166 44.647 37.935C44.978 37.27 45.143 36.938 44.842 36.469C44.54 36 44.04 36 43.04 36H39.958C38.959 36 38.459 36 38.158 36.469C37.856 36.938 38.021 37.27 38.352 37.935C38.966 39.166 40.145 40 41.5 40ZM28.5 40C29.855 40 31.034 39.166 31.647 37.935C31.978 37.27 32.143 36.938 31.842 36.469C31.54 36 31.04 36 30.04 36H26.959C25.96 36 25.46 36 25.159 36.469C24.857 36.938 25.022 37.27 25.353 37.935C25.966 39.166 27.145 40 28.5 40Z" stroke="#E3EDF5" stroke-width="1.5" stroke-linecap="round" stroke-linejoin="round"/>
<path d="M36.5 26.5C36.5 26.8978 36.342 27.2794 36.0607 27.5607C35.7794 27.842 35.3978 28 35 28C34.6022 28 34.2206 27.842 33.9393 27.5607C33.658 27.2794 33.5 26.8978 33.5 26.5C33.5 26.1022 33.658 25.7206 33.9393 25.4393C34.2206 25.158 34.6022 25 35 25C35.3978 25 35.7794 25.158 36.0607 25.4393C36.342 25.7206 36.5 26.1022 36.5 26.5Z" stroke="#E3EDF5" stroke-width="1.5" stroke-linecap="round" stroke-linejoin="round"/>
</svg>
