<svg width="300" height="300" viewBox="0 0 300 300" fill="none" xmlns="http://www.w3.org/2000/svg">
<path opacity="0.9" d="M295.939 115.331C288.354 83.4038 270.509 54.8444 245.138 34.0308C219.766 13.2172 188.27 1.29793 155.476 0.0999794C122.682 -1.09797 90.3993 8.49151 63.5773 27.3985C36.7553 46.3056 16.8736 73.4868 6.97978 104.776L39.2034 114.965C46.8681 90.7259 62.2703 69.6688 83.0491 55.0217C103.828 40.3746 128.837 32.9457 154.242 33.8737C179.647 34.8018 204.048 44.0355 223.702 60.1597C243.357 76.2838 257.182 98.4085 263.057 123.143L295.939 115.331Z" fill="#D6E5F0"/>
<path d="M63.8455 27.2099C43.0529 41.7989 26.3055 61.4288 15.1734 84.2596C4.04135 107.09 -1.11086 132.374 0.199842 157.74C1.51055 183.107 9.24123 207.725 22.6671 229.286C36.0931 250.848 54.7744 268.648 76.9599 281.016L92.801 252.601C75.4272 242.915 60.7975 228.976 50.2834 212.091C39.7693 195.205 33.7153 175.926 32.6888 156.062C31.6624 136.197 35.6972 116.397 44.4149 98.5175C53.1327 80.6384 66.2478 65.2658 82.5309 53.8409L63.8455 27.2099Z" fill="#F3CD50"/>
<path d="M77.864 281.516C110.24 299.274 148.029 304.466 183.994 296.097C219.96 287.729 251.575 266.388 272.786 236.161C293.996 205.934 303.312 168.945 298.949 132.277C294.586 95.6094 276.851 61.8394 249.14 37.4335L224.748 65.1285C245.642 83.5298 259.013 108.991 262.303 136.638C265.592 164.284 258.569 192.172 242.576 214.962C226.584 237.752 202.748 253.843 175.631 260.152C148.514 266.462 120.022 262.548 95.6118 249.159L77.864 281.516Z" fill="#566570"/>
</svg>
